<svg width="12" height="9" viewBox="0 0 12 9" fill="none" xmlns="http://www.w3.org/2000/svg">
<path d="M10.5 0.4375H1.5C1.30109 0.4375 1.11032 0.523102 0.96967 0.675476C0.829018 0.827849 0.75 1.03451 0.75 1.25V7.75C0.75 7.96549 0.829018 8.17215 0.96967 8.32452C1.11032 8.4769 1.30109 8.5625 1.5 8.5625H10.5C10.6989 8.5625 10.8897 8.4769 11.0303 8.32452C11.171 8.17215 11.25 7.96549 11.25 7.75V1.25C11.25 1.03451 11.171 0.827849 11.0303 0.675476C10.8897 0.523102 10.6989 0.4375 10.5 0.4375ZM9.675 1.25L6 4.00437L2.325 1.25H9.675ZM1.5 7.75V1.61969L5.78625 4.83313C5.84902 4.8803 5.9236 4.90558 6 4.90558C6.0764 4.90558 6.15098 4.8803 6.21375 4.83313L10.5 1.61969V7.75H1.5Z" fill="white" fill-opacity="0.34"/>
</svg>
