<svg width="19" height="19" viewBox="0 0 19 19" fill="none" xmlns="http://www.w3.org/2000/svg">
<g clip-path="url(#clip0_7_42)" filter="url(#filter0_d_7_42)">
<path d="M9.86667 7.7H10.6M13.1667 6.23334V5.5C13.1667 5.30551 13.0894 5.11898 12.9519 4.98146C12.8144 4.84393 12.6278 4.76667 12.4333 4.76667H5.1C4.90551 4.76667 4.71898 4.84393 4.58146 4.98146C4.44393 5.11898 4.36667 5.30551 4.36667 5.5V9.9C4.36667 10.0945 4.44393 10.281 4.58146 10.4185C4.71898 10.5561 4.90551 10.6333 5.1 10.6333H12.4333C12.6278 10.6333 12.8144 10.5561 12.9519 10.4185C13.0894 10.281 13.1667 10.0945 13.1667 9.9V9.16667V6.23334ZM13.1667 6.23334H10.2333C9.84435 6.23334 9.4713 6.38786 9.19625 6.66291C8.92119 6.93797 8.76667 7.31102 8.76667 7.7C8.76667 8.08899 8.92119 8.46204 9.19625 8.73709C9.4713 9.01214 9.84435 9.16667 10.2333 9.16667H13.1667V6.23334ZM13.1667 6.23334C13.5557 6.23334 13.9287 6.38786 14.2038 6.66291C14.4788 6.93797 14.6333 7.31102 14.6333 7.7C14.6333 8.08899 14.4788 8.46204 14.2038 8.73709C13.9287 9.01214 13.5557 9.16667 13.1667 9.16667V6.23334ZM6.56667 4.76667V2.56667C6.56667 1.98319 6.79845 1.42361 7.21103 1.01103C7.62361 0.598454 8.18319 0.366669 8.76667 0.366669C9.35015 0.366669 9.90972 0.598454 10.3223 1.01103C10.7349 1.42361 10.9667 1.98319 10.9667 2.56667V4.76667H6.56667ZM12.8 7.7H13.5333H12.8ZM11.3333 7.7H12.0667H11.3333Z" stroke="white" stroke-opacity="0.34"/>
</g>
<defs>
<filter id="filter0_d_7_42" x="0" y="0" width="19" height="19" filterUnits="userSpaceOnUse" color-interpolation-filters="sRGB">
<feFlood flood-opacity="0" result="BackgroundImageFix"/>
<feColorMatrix in="SourceAlpha" type="matrix" values="0 0 0 0 0 0 0 0 0 0 0 0 0 0 0 0 0 0 127 0" result="hardAlpha"/>
<feOffset dy="4"/>
<feGaussianBlur stdDeviation="2"/>
<feComposite in2="hardAlpha" operator="out"/>
<feColorMatrix type="matrix" values="0 0 0 0 0 0 0 0 0 0 0 0 0 0 0 0 0 0 0.25 0"/>
<feBlend mode="normal" in2="BackgroundImageFix" result="effect1_dropShadow_7_42"/>
<feBlend mode="normal" in="SourceGraphic" in2="effect1_dropShadow_7_42" result="shape"/>
</filter>
<clipPath id="clip0_7_42">
<rect width="11" height="11" fill="white" transform="translate(4)"/>
</clipPath>
</defs>
</svg>
